{"title":"Pirates Of The Silicon Valley (480p-10bit)-CRF16","uid":8682426,"size":1654476870,"categoryP":"video","categoryS":"movies","magnet":"?xt=urn:btih:8ffde9bf1d2cd3451b7776dc6c8239882e215c01&amp;dn=Pirates+Of+The+Silicon+Valley+%28480p-10bit%29-CRF16&amp;tr=udp%3A%2F%2Ftracker.openbittorrent.com%3A80&amp;tr=udp%3A%2F%2Fopen.demonii.com%3A1337&amp;tr=udp%3A%2F%2Ftracker.coppersurfer.tk%3A6969&amp;tr=udp%3A%2F%2Fexodus.desync.com%3A6969","seeders":1,"leechers":0,"uploader":"AV_dude","files":1,"time":1373732297,"description":"Will play in any recent build of Media Player Classic Home Cinema. \n\nGeneral \nUnique ID : 187928054312007797184388708949685274430 (0x8D61A070A7E943778E5F93F50201873E) \nComplete name : H:OUTPirates Of The Silicon Valley (480p-10bit).mkv \nFormat : Matroska \nFormat version : Version 4 / Version 2 \nFile size : 1.54 GiB \nDuration : 1h 36mn \nOverall bit rate mode : Variable \nOverall bit rate : 2 276 Kbps \nEncoded date : UTC 2013-07-12 10:01:17 \nWriting application : mkvmerge v6.3.0 ('You can't stop me!') built on Jun 28 2013 20:09:41 \nWriting library : libebml v1.3.0 + libmatroska v1.4.0 \nAttachment : Yes \n\nVideo \nID : 1 \nFormat : AVC \nFormat/Info : Advanced Video Codec \nFormat profile : High &lt;a class=&quot;__cf_email__&quot; href=&quot;/cdn-cgi/l/email-protection&quot; data-cfemail=&quot;0435344448372a34&quot;&gt;[email&amp;#160;protected]&lt;/a&gt;&lt;script cf-hash='f9e31' type=&quot;text/javascript&quot;&gt;\n/* &lt;![CDATA[ */!function(){try{var t=&quot;currentScript&quot;in document?document.currentScript:function(){for(var t=document.getElementsByTagName(&quot;script&quot;),e=t.length;e--;)if(t[e].getAttribute(&quot;cf-hash&quot;))return t[e]}();if(t&amp;&amp;t.previousSibling){var e,r,n,i,c=t.previousSibling,a=c.getAttribute(&quot;data-cfemail&quot;);if(a){for(e=&quot;&quot;,r=parseInt(a.substr(0,2),16),n=2;a.length-n;n+=2)i=parseInt(a.substr(n,2),16)^r,e+=String.fromCharCode(i);e=document.createTextNode(e),c.parentNode.replaceChild(e,c)}}}catch(u){}}();/* ]]&gt; */&lt;/script&gt; \nFormat settings, CABAC : Yes \nFormat settings, ReFrames : 4 frames \nCodec ID : V_MPEG4/ISO/AVC \nDuration : 1h 36mn \nBit rate : 2 038 Kbps \nWidth : 720 pixels \nHeight : 480 pixels \nDisplay aspect ratio : 4:3 \nOriginal display aspect ratio : 4:3 \nFrame rate mode : Constant \nFrame rate : 23.976 fps \nOriginal frame rate : 24.000 fps \nStandard : NTSC \nColor space : YUV \nChroma subsampling : 4:2:0 \nBit depth : 10 bits \nScan type : Progressive \nBits/(Pixel*Frame) : 0.246 \nStream size : 1.38 GiB (90%) \nWriting library : x264 core 132 r2310 76a5c3a \nEncoding settings : cabac=1 / ref=4 / deblock=1:0:0 / analyse=0x3:0x133 / me=hex / subme=7 / psy=1 / psy_rd=1.00:0.00 / mixed_ref=1 / me_range=16 / chroma_me=1 / trellis=2 / 8x8dct=1 / cqm=0 / deadzone=21,11 / fast_pskip=1 / chroma_qp_offset=-2 / threads=12 / lookahead_threads=3 / sliced_threads=0 / nr=0 / decimate=1 / interlaced=0 / bluray_compat=0 / constrained_intra=0 / bframes=4 / b_pyramid=2 / b_adapt=2 / b_bias=0 / direct=3 / weightb=1 / open_gop=0 / weightp=2 / keyint=240 / keyint_min=24 / scenecut=40 / intra_refresh=0 / rc_lookahead=120 / rc=crf / mbtree=1 / crf=16.0 / qcomp=0.60 / qpmin=0 / qpmax=81 / qpstep=4 / ip_ratio=1.40 / aq=1:1.00 \nLanguage : English \nDefault : Yes \nForced : No \n\nAudio \nID : 2 \nFormat : Vorbis \nFormat settings, Floor : 1 \nCodec ID : A_VORBIS \nDuration : 1h 36mn \nBit rate mode : Variable \nBit rate : 192 Kbps \nChannel(s) : 2 channels \nSampling rate : 48.0 KHz \nCompression mode : Lossy \nStream size : 133 MiB (8%) \nWriting library : libVorbis (Omnipresent) (20120203 (Omnipresent)) \nDefault : Yes \nForced : No \n\nText \nID : 3 \nFormat : VobSub \nMuxing mode : zlib \nCodec ID : S_VOBSUB \nCodec ID/Info : The same subtitle format used on DVDs \nLanguage : English \nDefault : Yes \nForced : No \n\nMenu \n00:00:00.000 : en:Chapter 01 \n00:03:41.237 : en:Chapter 02 \n00:09:14.287 : en:Chapter 03 \n00:13:49.562 : en:Chapter 04 \n00:16:08.651 : en:Chapter 05 \n00:20:02.267 : en:Chapter 06 \n00:24:35.540 : en:Chapter 07 \n00:28:21.199 : en:Chapter 08 \n00:32:56.207 : en:Chapter 09 \n00:37:02.536 : en:Chapter 10 \n00:40:23.521 : en:Chapter 11 \n00:45:56.487 : en:Chapter 12 \n00:50:59.372 : en:Chapter 13 \n00:54:44.781 : en:Chapter 14 \n01:00:54.083 : en:Chapter 15 \n01:04:56.876 : en:Chapter 16 \n01:07:23.706 : en:Chapter 17 \n01:12:25.074 : en:Chapter 18 \n01:16:49.171 : en:Chapter 19 \n01:19:24.326 : en:Chapter 20 \n01:21:50.572 : en:Chapter 21 \n01:26:09.230 : en:Chapter 22 \n01:28:58.566 : en:Chapter 23 \n01:31:27.482 : en:Chapter 24 \n\n","torrent":{"xt":"urn:btih:8ffde9bf1d2cd3451b7776dc6c8239882e215c01","amp;dn":"Pirates+Of+The+Silicon+Valley+%28480p-10bit%29-CRF16","amp;tr":["udp%3A%2F%2Ftracker.openbittorrent.com%3A80","udp%3A%2F%2Fopen.demonii.com%3A1337","udp%3A%2F%2Ftracker.coppersurfer.tk%3A6969","udp%3A%2F%2Fexodus.desync.com%3A6969"],"infoHash":"8ffde9bf1d2cd3451b7776dc6c8239882e215c01","infoHashBuffer":{"type":"Buffer","data":[143,253,233,191,29,44,211,69,27,119,118,220,108,130,57,136,46,33,92,1]},"announce":[],"urlList":[]}}